<?xml version="1.0" standalone="no"?>
<!DOCTYPE svg PUBLIC "-//W3C//DTD SVG 20010904//EN"
 "http://www.w3.org/TR/2001/REC-SVG-20010904/DTD/svg10.dtd">
<svg version="1.0" xmlns="http://www.w3.org/2000/svg"
 width="1279.000000pt" height="592.000000pt" viewBox="0 0 1279.000000 592.000000"
 preserveAspectRatio="xMidYMid meet">
<metadata>
Created by potrace 1.16, written by Peter Selinger 2001-2019
</metadata>
<g transform="translate(0.000000,592.000000) scale(0.100000,-0.100000)"
fill="#000000" stroke="none">
<path d="M2360 5625 l-295 -295 -860 0 -860 0 -173 -173 -172 -172 0 -115 0
-114 53 52 53 52 239 0 240 0 -293 -293 -292 -292 0 -1475 0 -1475 78 78 77
77 140 0 140 0 -218 -218 -217 -217 0 -523 0 -522 1071 0 c1016 0 1071 1 1058
18 -13 16 -12 16 7 -1 25 -21 169 -25 177 -4 4 9 6 9 6 0 1 -10 120 -13 559
-13 l557 0 325 325 c323 324 325 325 365 323 l40 -1 -41 -4 c-38 -4 -57 -21
-359 -323 -291 -291 -317 -320 -290 -320 26 0 68 38 315 285 156 156 286 282
289 279 3 -3 -121 -131 -274 -284 l-280 -280 735 0 735 0 490 488 490 487
-485 -487 -485 -488 215 0 215 0 245 243 245 242 -240 -243 -240 -242 230 0
231 0 239 240 c131 132 241 240 244 240 3 0 -102 -108 -234 -240 l-240 -240
765 0 765 0 -523 523 -522 522 0 623 c0 496 -3 622 -12 616 -10 -6 -10 -4 -1
7 9 9 13 53 13 143 l0 131 -152 -150 -153 -150 153 155 152 155 0 667 0 667
-32 4 -33 4 33 1 c24 2 32 7 32 21 0 14 -8 21 -27 24 l-28 4 28 2 c35 1 39 37
5 44 l-23 4 23 2 c27 1 31 37 5 44 -17 4 -17 5 0 6 20 1 24 37 5 44 -10 4 -10
6 0 6 8 1 12 25 12 85 0 58 -4 86 -12 89 -10 4 -10 6 0 6 19 1 14 39 -5 44
-17 4 -17 5 0 6 26 2 22 39 -5 44 l-23 4 23 2 c34 2 30 39 -5 44 l-28 4 28 2
c20 1 27 6 27 20 0 14 -8 21 -27 24 l-28 4 28 2 c20 1 27 6 27 20 0 15 -8 21
-32 24 l-33 4 33 1 32 2 0 158 0 157 527 528 528 527 -1210 0 -1210 0 0 -46
c-1 -38 -6 -51 -28 -70 -39 -33 -88 -32 -128 4 -26 23 -31 35 -31 70 l1 42
-1097 0 -1097 0 -295 -295z m4460 262 c0 -1 -228 -229 -507 -507 l-508 -505
500 503 c451 453 497 502 470 502 -26 0 -97 -67 -565 -532 l-535 -533 535 538
c517 519 536 537 572 537 21 0 38 -1 38 -3z m-4970 -1426 l0 -49 30 15 c68 33
140 -21 140 -105 0 -62 -17 -93 -62 -115 -33 -16 -40 -17 -72 -3 -20 8 -36 11
-36 5 0 -5 -18 -9 -40 -9 l-40 0 0 155 0 155 40 0 40 0 0 -49z m2340 0 l0 -49
30 15 c65 32 130 -13 138 -95 5 -55 -15 -104 -49 -123 -28 -15 -86 -14 -104 1
-11 9 -15 9 -15 1 0 -6 -17 -11 -40 -11 l-40 0 0 155 0 155 40 0 40 0 0 -49z
m-3366 -67 c21 -52 40 -94 41 -92 2 2 20 45 40 96 l37 92 44 0 44 0 0 -145 0
-145 -40 0 -40 0 -1 73 0 72 -26 -72 c-26 -70 -28 -73 -59 -73 -31 0 -33 3
-60 78 l-29 77 -3 -77 -3 -78 -34 0 -35 0 0 145 0 145 43 0 44 0 37 -96z
m1886 66 c0 -23 4 -30 20 -30 16 0 20 -7 20 -30 0 -23 -4 -30 -20 -30 -18 0
-20 -7 -20 -55 0 -48 2 -55 20 -55 16 0 20 -7 20 -30 0 -28 -2 -30 -39 -30
-57 0 -81 33 -81 111 0 46 -3 59 -15 59 -10 0 -15 10 -15 30 0 20 5 30 15 30
10 0 15 10 15 30 0 28 2 30 40 30 38 0 40 -2 40 -30z m645 5 c27 -26 34 -80
14 -117 -13 -24 -67 -48 -109 -48 -29 0 -30 -1 -30 -50 l0 -50 -35 0 -35 0 0
145 0 145 85 0 c78 0 88 -2 110 -25z m-2120 -39 c36 -16 65 -59 65 -101 0 -25
-1 -25 -80 -25 -44 0 -80 -2 -80 -4 0 -2 3 -11 6 -20 7 -18 64 -23 64 -6 0 6
18 10 40 10 47 0 52 -15 17 -48 -72 -68 -185 -33 -203 62 -8 45 18 101 58 126
39 24 66 25 113 6z m285 -4 c34 -17 36 -17 68 2 29 16 39 17 73 7 54 -16 69
-49 69 -151 l0 -80 -40 0 -40 0 0 80 c0 77 -1 80 -25 86 -43 11 -55 -10 -55
-92 l0 -74 -40 0 -39 0 -3 83 c-3 77 -4 82 -26 85 -41 6 -52 -14 -52 -94 l0
-74 -40 0 -40 0 0 115 0 115 40 0 c22 0 40 -4 40 -9 0 -6 12 -3 28 5 35 18 40
18 82 -4z m670 3 c17 -9 30 -11 30 -5 0 5 16 10 35 10 l35 0 0 -115 0 -115
-34 0 c-19 0 -36 6 -39 13 -3 9 -7 9 -20 -1 -24 -20 -85 -17 -109 5 -24 21
-48 73 -48 104 0 34 31 89 59 104 34 18 55 18 91 0z m358 -21 c19 -22 22 -36
22 -115 l0 -89 -35 0 -35 0 0 73 c0 78 -9 97 -47 97 -30 0 -43 -33 -43 -111
l0 -59 -35 0 -35 0 0 115 0 115 35 0 c19 0 35 -5 35 -10 0 -6 12 -4 28 5 36
20 81 11 110 -21z m1027 20 c34 -16 65 -65 65 -103 0 -20 -5 -21 -81 -21 -71
0 -80 -2 -77 -17 4 -21 45 -30 61 -14 6 6 28 11 49 11 45 0 49 -16 15 -48 -82
-77 -203 -24 -201 89 1 92 85 143 169 103z m285 -2 c34 -17 36 -17 67 1 40 23
81 16 114 -19 21 -22 24 -37 27 -115 l4 -89 -41 0 -40 0 -3 76 c-2 60 -7 79
-20 88 -13 8 -23 8 -35 0 -14 -9 -19 -28 -21 -88 l-3 -76 -39 0 -40 0 0 80 c0
77 -1 80 -25 86 -43 11 -55 -10 -55 -92 l0 -74 -40 0 -40 0 0 115 0 115 40 0
c22 0 40 -4 40 -9 0 -6 12 -3 28 5 35 18 40 18 82 -4z m670 3 c17 -9 30 -11
30 -5 0 5 16 10 35 10 l35 0 0 -115 0 -115 -34 0 c-19 0 -36 6 -39 13 -3 9 -7
9 -20 -1 -21 -17 -71 -18 -102 -2 -70 38 -71 168 -1 211 38 23 58 24 96 4z
m543 1 c15 -8 27 -11 27 -5 0 5 18 9 40 9 l40 0 0 -115 0 -115 -40 0 c-22 0
-40 5 -40 10 0 7 -6 7 -19 0 -34 -18 -88 -12 -117 13 -23 20 -28 34 -32 83 -3
50 0 63 18 87 37 46 76 57 123 33z m297 -24 c0 -34 -3 -39 -32 -47 -33 -10
-33 -10 -36 -82 l-3 -73 -39 0 -40 0 0 115 0 115 40 0 c22 0 40 -4 40 -10 0
-5 15 -3 33 5 17 8 33 14 35 15 1 0 2 -17 2 -38z m163 24 c15 -8 27 -11 27 -5
0 5 18 9 40 9 l40 0 0 -115 0 -115 -40 0 c-22 0 -40 5 -40 10 0 7 -6 7 -19 0
-25 -13 -77 -13 -102 0 -50 27 -66 136 -28 184 35 45 76 55 122 32z m332 2
c41 -18 55 -57 55 -148 l0 -80 -40 0 -39 0 -3 83 c-3 77 -4 82 -26 85 -41 6
-52 -14 -52 -94 l0 -74 -40 0 -40 0 0 115 0 115 40 0 c22 0 40 -4 40 -9 0 -6
12 -3 28 5 33 17 44 17 77 2z m-3005 -71 c0 -78 9 -97 47 -97 31 0 43 28 43
104 l0 66 35 0 35 0 0 -115 0 -115 -34 0 c-19 0 -36 6 -39 13 -4 10 -7 10 -18
0 -23 -23 -87 -16 -114 12 -23 22 -25 32 -25 115 l0 90 35 0 35 0 0 -73z
m1900 7 c12 -36 25 -62 28 -59 4 4 16 32 27 63 20 56 21 57 62 60 l41 3 -71
-170 -72 -171 -37 0 c-44 0 -45 6 -18 60 11 22 20 47 20 57 0 10 -20 64 -44
121 l-44 102 43 0 43 0 22 -66z m-3245 -634 l0 -155 -28 -3 c-16 -2 -34 2 -42
8 -10 8 -19 8 -34 1 -33 -18 -69 -12 -102 17 -25 23 -33 38 -36 78 -6 56 13
106 46 124 25 13 77 13 102 0 17 -10 19 -7 19 33 0 52 5 59 45 55 l30 -3 0
-155z m955 108 c4 -39 8 -46 20 -38 32 21 85 11 116 -21 25 -26 29 -38 29 -84
0 -89 -65 -146 -132 -116 -18 8 -29 9 -37 1 -5 -5 -25 -10 -43 -10 l-33 0 0
161 0 160 38 -3 c36 -3 37 -4 42 -50z m400 2 c0 -47 1 -50 19 -40 26 14 82 12
102 -3 30 -23 39 -56 39 -141 l0 -86 -35 0 -35 0 0 63 c0 83 -8 106 -36 113
-42 11 -54 -10 -54 -97 l0 -79 -35 0 -35 0 0 160 0 160 35 0 35 0 0 -50z
m1190 -110 l0 -160 -35 0 c-24 0 -35 5 -35 14 0 12 -5 12 -31 -1 -63 -31 -131
7 -145 83 -9 47 2 82 37 116 25 25 36 29 67 26 20 -3 45 -8 55 -12 15 -7 17
-2 17 43 l0 51 35 0 35 0 0 -160z m410 108 c4 -39 8 -46 20 -38 8 5 30 10 48
10 66 0 98 -65 90 -185 -3 -50 -3 -50 -38 -50 l-35 0 -5 79 c-4 61 -9 81 -22
90 -13 8 -23 8 -35 0 -14 -9 -19 -29 -23 -90 l-5 -79 -35 0 -35 0 -3 145 c-1
79 0 150 3 158 3 8 17 12 37 10 31 -3 33 -5 38 -50z m-3556 -94 c66 -181 65
-174 22 -174 -29 0 -39 5 -48 25 -10 22 -17 25 -63 25 -46 0 -53 -3 -63 -25
-9 -20 -19 -25 -47 -25 -19 0 -35 3 -35 8 0 4 23 71 51 150 l52 142 42 0 43 0
46 -126z m1096 6 l0 -120 45 0 c43 0 45 -1 45 -30 l0 -30 -80 0 -80 0 0 150 0
150 35 0 35 0 0 -120z m1278 30 c18 -47 37 -88 41 -93 4 -4 24 35 45 88 l38
95 44 0 45 0 -3 -147 -3 -148 -35 0 -35 0 -3 75 -4 75 -28 -75 c-25 -69 -30
-75 -57 -78 -30 -3 -32 -1 -59 75 l-29 78 -5 -75 -5 -75 -35 0 -35 0 -3 148
-3 148 48 -3 47 -3 34 -85z m-2208 20 c0 -7 6 -7 19 0 33 17 78 11 108 -14 27
-23 28 -28 28 -118 l0 -93 -35 0 -35 0 -5 79 c-4 61 -9 81 -22 90 -13 8 -23 8
-35 0 -14 -9 -19 -29 -23 -90 l-5 -79 -35 0 -35 0 -3 118 -3 117 41 0 c22 0
40 -5 40 -10z m620 0 c13 -7 21 -7 25 0 3 5 22 10 41 10 l34 0 0 -120 0 -120
-33 0 c-18 0 -38 5 -43 10 -8 8 -19 7 -37 -1 -67 -30 -132 27 -132 116 0 46 4
58 29 84 31 33 78 41 116 21z m613 -10 c28 -22 52 -82 43 -105 -4 -11 -24 -15
-81 -15 -75 0 -88 -7 -60 -30 12 -10 21 -10 44 0 16 6 44 10 62 8 l33 -3 -29
-33 c-55 -62 -154 -51 -191 20 -25 48 -14 115 25 150 40 36 114 39 154 8z
m435 -97 l-3 -118 -35 0 -35 0 -3 118 -3 117 41 0 41 0 -3 -117z m874 35 l3
-83 35 0 35 0 3 83 3 82 40 0 40 0 -3 -117 -3 -118 -28 -3 c-16 -2 -34 1 -41
7 -9 7 -22 7 -44 -1 -26 -10 -37 -9 -66 5 -42 20 -56 59 -56 160 l0 67 40 0
39 0 3 -82z m630 65 c17 -15 18 -15 18 0 0 13 9 17 35 17 l35 0 0 -120 0 -120
-35 0 c-25 0 -35 4 -35 16 0 14 -2 14 -22 0 -28 -20 -61 -20 -97 -1 -29 14
-36 25 -52 79 -12 41 6 100 38 125 31 25 89 27 115 4z m-3364 -567 c52 -27 74
-70 69 -138 -6 -96 -62 -138 -187 -138 l-70 0 0 151 0 152 78 -5 c45 -3 91
-12 110 -22z m1652 -95 l0 -120 48 -3 c43 -3 47 -5 50 -30 l3 -28 -85 0 -86 0
0 150 0 150 35 0 35 0 0 -119z m1356 79 c6 -19 30 -86 53 -147 l40 -113 -40 0
c-33 0 -41 4 -49 25 -9 22 -15 25 -64 25 -49 0 -54 -2 -60 -25 -5 -21 -12 -25
-46 -25 l-39 0 38 108 c22 59 42 114 45 122 3 8 10 28 16 43 9 26 14 28 52 25
37 -3 42 -7 54 -38z m-2736 -35 c33 -17 60 -61 60 -100 0 -25 -1 -25 -81 -25
-57 0 -80 -3 -77 -12 8 -23 37 -34 58 -20 11 6 36 12 55 12 44 0 46 -19 4 -54
-63 -54 -168 -24 -189 54 -29 109 73 195 170 145z m170 -1 c0 -14 2 -14 22 0
32 23 73 20 105 -8 26 -23 28 -29 31 -120 l4 -96 -41 0 -40 0 -3 83 -3 82 -29
3 c-39 5 -46 -10 -46 -95 l0 -73 -40 0 -40 0 0 113 c0 63 3 117 7 120 3 4 21
7 40 7 23 0 33 -5 33 -16z m332 5 c14 -8 23 -8 31 0 6 6 26 11 45 11 l33 0 -3
-146 -3 -146 -33 -29 c-26 -23 -42 -29 -78 -29 -51 0 -98 21 -114 49 -17 33
-11 41 30 41 22 0 40 -4 40 -10 0 -16 49 -23 65 -10 8 7 15 23 15 37 0 20 -3
22 -19 13 -63 -33 -138 11 -148 89 -13 95 66 169 139 130z m296 -5 c20 -14 22
-14 22 0 0 12 10 16 35 16 l35 0 0 -120 0 -120 -35 0 c-26 0 -35 4 -35 17 0
15 -1 15 -18 0 -26 -23 -84 -21 -115 4 -61 47 -58 161 6 199 39 24 75 25 105
4z m212 2 c0 -13 4 -13 28 0 39 20 66 17 101 -12 31 -25 31 -27 31 -120 l0
-94 -35 0 -35 0 0 69 c0 88 -5 101 -41 101 -37 0 -49 -28 -49 -111 l0 -59 -35
0 -35 0 0 120 0 120 35 0 c24 0 35 -5 35 -14z m692 -25 c75 -83 23 -201 -89
-201 -108 0 -163 130 -85 202 36 34 49 38 102 34 34 -3 51 -11 72 -35z m238
24 c38 -19 60 -63 60 -116 0 -33 -6 -47 -34 -75 -30 -30 -40 -34 -86 -34 -46
0 -56 4 -86 34 -28 28 -34 42 -34 75 0 103 91 162 180 116z m170 -1 c0 -14 2
-14 22 0 28 20 61 20 97 2 35 -19 51 -55 51 -117 0 -42 -5 -55 -29 -80 -23
-22 -39 -29 -70 -29 -22 0 -43 5 -46 10 -16 25 -25 5 -25 -55 l0 -65 -35 0
-35 0 0 175 0 175 35 0 c25 0 35 -4 35 -16z m377 -19 c13 -14 23 -30 23 -36 0
-13 -57 -11 -79 3 -20 12 -60 3 -45 -11 5 -5 27 -14 49 -21 53 -17 75 -37 75
-71 0 -38 -41 -69 -92 -69 -61 0 -108 31 -108 71 0 15 62 10 81 -7 18 -16 49
-13 49 5 0 5 -23 17 -50 26 -83 28 -100 80 -42 126 38 29 107 22 139 -16z
m443 19 c0 -14 2 -14 22 0 28 20 61 20 97 1 25 -13 36 -30 55 -89 10 -30 -12
-93 -41 -115 -31 -25 -89 -27 -115 -4 -17 15 -18 13 -18 -55 l0 -72 -35 0 -35
0 0 175 0 175 35 0 c25 0 35 -4 35 -16z m280 2 c0 -12 5 -12 31 1 87 43 173
-49 139 -151 -22 -67 -84 -92 -152 -62 -16 7 -18 1 -18 -58 l0 -66 -35 0 -35
0 0 175 0 175 35 0 c24 0 35 -5 35 -14z"/>
<path d="M770 3100 l0 -80 38 0 c56 0 77 28 73 98 -2 34 -36 62 -76 62 l-35 0
0 -80z"/>
<path d="M4867 5913 c-15 -14 -6 -74 13 -93 44 -44 108 -34 139 21 18 33 8 79
-18 79 -24 0 -42 -22 -51 -63 l-8 -32 -1 29 c-1 16 6 38 16 48 15 17 14 18
-34 18 -27 0 -53 -3 -56 -7z"/>
<path d="M11920 5770 l0 -150 -2102 0 -2103 -1 -345 -396 c-190 -218 -411
-472 -492 -565 l-148 -169 0 -1818 0 -1817 393 -427 392 -427 2638 0 2637 0 0
2960 0 2960 -435 0 -435 0 0 -150z m-3460 -173 c0 -6 -20 -23 -45 -36 -74 -39
-125 -121 -134 -215 -5 -47 -11 -62 -30 -74 l-23 -16 3 70 c8 132 111 284 194
284 21 0 35 -5 35 -13z m715 -31 c23 -154 -121 -366 -249 -366 -45 0 -28 31
34 61 63 31 108 75 142 139 19 37 23 61 23 127 0 79 1 83 22 83 18 0 23 -7 28
-44z m163 -161 c-5 -70 -3 -85 9 -85 8 0 229 36 491 81 584 99 558 96 581 75
10 -9 61 -32 112 -50 52 -18 104 -38 116 -44 12 -7 29 -12 39 -12 14 0 16 -7
10 -42 -13 -86 -19 -186 -12 -213 6 -24 11 -27 36 -21 27 5 30 3 30 -19 0 -14
11 -54 25 -91 14 -36 25 -76 25 -89 0 -12 3 -25 6 -28 4 -3 8 -22 9 -42 2 -38
33 -115 47 -115 4 0 17 -9 28 -20 11 -11 26 -20 34 -20 30 0 128 -53 135 -74
5 -11 11 -79 15 -151 4 -71 8 -148 10 -170 2 -22 1 -30 -1 -17 -6 33 -40 29
-47 -5 -3 -16 -6 -84 -6 -153 0 -69 -4 -161 -9 -205 -6 -57 -7 -12 -3 153 3
170 2 232 -7 232 -6 0 -11 -5 -11 -10 0 -6 -15 -17 -32 -25 -39 -17 -228 -75
-244 -75 -16 0 -95 -37 -118 -55 -11 -9 -40 -15 -68 -15 -43 0 -48 -2 -48 -22
0 -13 -9 -34 -20 -48 l-20 -25 0 23 c0 19 -4 22 -22 16 l-21 -6 21 36 c25 43
16 46 -27 10 -20 -16 -39 -24 -51 -21 -11 3 -20 1 -20 -4 0 -5 -4 -9 -10 -9
-5 0 -10 9 -10 19 0 32 -76 45 -99 17 -11 -14 -8 -86 5 -129 3 -10 0 -25 -7
-33 -7 -9 -14 -23 -15 -31 -4 -22 -14 -29 -14 -10 0 9 -4 17 -9 17 -9 0 -34
64 -45 113 -10 43 -66 31 -66 -14 0 -12 -20 -27 -59 -44 -55 -25 -81 -53 -81
-89 0 -8 -7 -19 -15 -26 -8 -6 -24 -37 -35 -67 -19 -51 -68 -128 -77 -120 -3
4 26 69 67 147 10 19 21 51 24 70 l6 34 -28 -27 c-15 -15 -31 -27 -35 -27 -18
0 -88 -82 -122 -145 -47 -87 -62 -101 -86 -79 -15 13 -19 12 -42 -16 -16 -18
-35 -30 -50 -30 -27 0 -61 -34 -117 -116 l-33 -47 29 7 c16 4 36 14 45 22 8 8
20 14 25 14 12 0 -48 -49 -60 -50 -5 0 -17 -7 -25 -15 -22 -19 -183 -101 -215
-109 -14 -3 -42 -22 -63 -41 -48 -44 -57 -44 -50 -1 l5 34 -61 11 c-172 33
-333 120 -398 215 -13 20 -27 36 -30 36 -4 0 -12 -21 -19 -46 -8 -26 -32 -68
-57 -97 -23 -28 -43 -55 -43 -59 0 -5 -23 -61 -51 -126 -91 -208 -98 -227 -93
-244 3 -10 1 -18 -5 -18 -27 0 -91 -175 -91 -250 0 -19 -9 -64 -20 -100 -25
-79 -27 -191 -5 -273 17 -67 18 -83 3 -47 -6 14 -11 28 -10 32 1 4 -7 10 -18
13 -11 4 -18 11 -15 16 4 5 -1 9 -9 9 -9 0 -16 9 -16 20 0 10 -8 27 -19 37
-10 10 -24 28 -30 41 -6 12 -18 22 -27 22 -12 0 -12 4 -4 20 8 16 8 18 -4 14
-8 -3 -17 -1 -21 5 -13 22 -23 10 -51 -59 -16 -38 -32 -70 -36 -70 -5 0 -8 38
-8 85 0 73 -3 88 -21 106 -12 12 -25 17 -30 12 -10 -10 -52 -303 -45 -311 3
-2 90 -10 193 -16 104 -6 193 -15 200 -19 7 -4 10 -13 7 -20 -4 -10 -22 -11
-92 -1 -48 7 -140 18 -204 24 -107 11 -118 14 -118 32 0 11 12 133 26 270 14
137 24 257 22 266 -2 9 -16 -80 -32 -198 -16 -118 -33 -219 -39 -225 -6 -7 -8
-2 -4 15 3 14 9 62 13 107 l7 83 -39 0 c-22 0 -69 3 -106 7 -61 5 -68 8 -68
27 1 19 2 19 11 4 8 -15 25 -18 109 -18 92 0 100 2 100 19 0 23 -24 29 -132
33 -44 2 -78 7 -78 13 0 6 40 9 105 7 58 -2 105 -2 106 0 0 2 6 48 12 102 8
62 17 101 25 104 8 2 13 -8 14 -30 1 -18 4 1 7 42 8 89 5 107 -18 115 -10 3
-24 17 -31 30 -7 14 -21 25 -31 25 -16 0 -17 15 -15 193 4 253 16 292 101 333
63 30 46 44 -54 44 l-89 0 -5 -32 c-3 -18 -28 -199 -54 -403 -26 -203 -49
-361 -51 -350 -2 17 30 298 85 740 l8 60 65 8 c36 4 84 10 106 13 38 4 43 8
48 37 4 18 7 40 7 49 0 10 4 20 10 23 5 4 9 19 9 36 0 16 9 38 21 50 11 11 18
23 15 26 -3 4 3 12 14 20 29 21 25 37 -19 66 -31 21 -40 34 -46 66 -13 77 33
151 94 151 34 0 81 -44 81 -76 0 -24 0 -24 31 -9 18 10 29 22 25 30 -2 7 2 19
10 26 10 8 12 15 5 22 -7 7 -7 15 0 24 8 9 8 13 0 13 -29 0 16 59 47 60 18 0
15 -11 -10 -38 l-23 -25 33 17 c17 9 32 21 32 26 0 6 5 10 10 10 18 0 109 75
110 90 0 13 1 13 10 0 6 -10 10 -11 10 -3 0 7 6 12 13 10 6 -1 11 4 10 11 -2
6 4 12 12 12 8 0 15 4 15 10 0 5 6 7 14 4 10 -4 23 11 42 48 25 50 26 56 15
109 -6 30 -10 80 -10 110 2 50 2 49 9 -22 4 -42 12 -84 17 -94 19 -33 37 21
34 100 -4 130 46 218 159 280 40 22 80 50 90 62 10 13 21 23 25 23 4 0 33 15
64 34 74 45 169 84 223 92 38 6 41 5 28 -8 -8 -9 -37 -21 -65 -27 -27 -7 -87
-31 -132 -53 -63 -32 -80 -44 -72 -54 8 -9 5 -11 -10 -7 -11 3 -32 -5 -51 -18
l-31 -24 33 -12 c44 -15 59 -15 82 2 16 13 17 17 5 31 -13 16 -12 16 8 4 18
-12 29 -10 82 14 159 71 336 73 486 5 51 -23 88 -32 80 -19 -5 7 34 47 41 43
2 -2 4 0 5 3 1 12 -53 46 -122 78 -40 18 -68 35 -63 38 17 10 119 -23 191 -63
l73 -39 6 25 c3 14 10 22 15 19 5 -3 16 2 25 10 8 9 26 16 40 16 13 0 24 4 24
8 0 5 18 15 40 22 22 7 40 17 40 22 0 5 4 6 10 3 5 -3 22 7 37 22 14 15 23 21
18 13 -5 -8 6 0 23 17 22 22 32 43 32 63 0 33 -7 30 130 55 54 10 90 21 98 32
9 13 12 14 13 2 0 -8 4 -4 9 9 5 12 18 25 27 28 39 14 92 38 89 41 -4 4 -178
-21 -674 -98 -216 -33 -396 -59 -398 -56 -6 6 7 187 14 187 3 0 2 -38 0 -85z
m2602 -327 c0 -14 64 -113 77 -121 7 -4 13 -15 13 -23 0 -23 59 -148 76 -160
18 -14 29 -118 14 -142 -7 -13 -9 -5 -10 31 0 55 -11 81 -50 117 -17 16 -32
45 -40 78 -7 30 -19 56 -26 59 -8 3 -14 12 -14 19 0 8 -18 49 -40 90 -43 82
-54 128 -20 84 11 -14 20 -28 20 -32z m-67 -195 c4 -21 7 -42 7 -48 1 -5 8
-20 16 -33 15 -24 15 -35 -6 -182 -13 -94 -30 -114 -31 -39 -2 68 1 91 11 104
4 6 10 34 11 64 3 40 0 55 -10 59 -10 3 -12 0 -8 -12 4 -9 3 -16 -2 -16 -5 0
-8 -8 -7 -17 0 -10 -5 -18 -11 -19 -7 -1 -16 -3 -20 -4 -5 -1 -11 -2 -15 -1
-8 1 -12 -18 -11 -46 1 -7 -3 -10 -9 -7 -5 3 -15 1 -22 -5 -16 -13 -85 -3 -81
13 6 29 20 54 49 83 46 48 59 65 76 98 29 57 55 60 63 8z m-4 -589 c2 -61 50
-226 75 -259 22 -29 24 -35 10 -45 -8 -7 -29 -14 -47 -14 -25 -2 -46 -15 -94
-64 -64 -64 -64 -76 0 -43 60 31 65 32 60 11 -3 -11 -17 -27 -32 -36 -14 -9
-33 -26 -43 -37 -16 -21 -95 -36 -83 -16 4 5 11 7 16 3 10 -6 -10 36 -22 46
-8 7 7 142 20 183 6 18 13 59 17 92 3 33 12 71 19 85 7 14 18 43 25 65 7 22
25 55 39 74 26 34 26 34 32 10 4 -13 7 -38 8 -55z m-2552 -1354 c7 0 10 -6 8
-12 -9 -22 40 -72 71 -74 67 -4 66 -3 52 -17 -6 -8 -22 -11 -35 -9 -27 5 -28
-3 -7 -54 19 -46 34 -133 23 -139 -4 -3 -11 9 -14 27 -12 53 -54 140 -64 133
-12 -7 -5 -26 32 -100 14 -27 28 -63 32 -80 5 -21 -1 -14 -18 21 -36 75 -47
76 -48 7 0 -44 -3 -53 -10 -38 -10 21 -7 -2 7 -77 l7 -33 -23 20 c-19 17 -21
26 -16 70 17 134 17 151 2 195 -10 31 -11 40 -2 28 7 -10 15 -15 18 -12 13 13
-13 78 -46 114 -43 48 -46 64 -8 44 15 -7 32 -14 39 -14z m919 -252 c-21 -434
-26 -531 -28 -533 -6 -3 -157 10 -160 15 -2 3 1 79 8 170 l13 165 -5 -162 -5
-163 68 0 69 0 12 193 c7 105 15 247 19 315 l6 122 -41 2 c-103 5 -96 7 -103
-42 l-6 -45 -1 53 -2 52 81 0 82 0 -7 -142z m-274 -293 c-4 -276 -3 -305 12
-305 9 0 16 -4 16 -10 0 -5 -7 -10 -15 -10 -12 0 -15 -13 -15 -59 0 -35 5 -63
12 -67 6 -4 39 -11 72 -15 l61 -7 -55 0 c-100 0 -92 6 -90 -69 1 -38 2 -177 1
-310 -1 -211 -3 -243 -16 -243 -9 0 -19 8 -22 18 -11 30 -31 38 -115 48 -27 3
-48 10 -48 15 0 5 -10 8 -22 8 -29 -2 -109 17 -154 36 -19 8 -41 12 -49 9 -8
-4 -15 -1 -15 5 0 6 -9 11 -19 11 -11 0 -23 5 -26 11 -4 6 -13 8 -21 5 -7 -3
-16 -1 -19 4 -4 6 -18 10 -32 10 -15 0 -37 10 -50 22 -19 18 -23 19 -17 5 5
-13 2 -16 -10 -11 -8 3 -14 11 -13 17 1 7 -12 12 -33 12 -19 0 -46 7 -60 15
-14 8 -31 13 -37 12 -7 -2 -13 2 -13 8 0 6 -5 8 -10 5 -6 -3 -22 3 -37 15 -17
13 -35 19 -48 16 -13 -3 -29 2 -41 12 -10 10 -33 24 -51 31 -18 7 -39 24 -48
37 -9 14 -20 22 -25 19 -6 -4 -10 -2 -10 4 0 6 -18 16 -40 22 -23 7 -40 18
-40 27 0 11 -3 12 -14 3 -10 -9 -24 -3 -62 29 -27 22 -53 40 -58 40 -5 0 -6 3
-3 7 4 4 -6 12 -22 19 -16 7 -37 25 -47 41 -28 44 -51 63 -84 70 -17 3 -33 10
-37 16 -3 6 -1 7 5 3 7 -4 12 -5 12 -1 0 3 -15 14 -32 25 -18 11 -28 20 -23
20 6 0 3 5 -5 10 -12 8 -12 10 5 10 11 0 36 -4 55 -10 67 -19 203 -23 241 -7
20 8 69 20 110 27 98 16 195 56 244 101 25 22 55 39 80 43 52 10 81 26 133 75
24 23 53 41 63 41 37 0 59 19 60 53 2 30 2 30 6 5 5 -32 15 -35 34 -12 7 8 25
22 41 30 24 13 28 21 30 62 l2 47 3 -48 c4 -44 6 -47 26 -41 12 3 30 14 41 23
26 22 70 91 77 121 6 21 7 22 8 4 1 -18 7 -21 48 -20 45 1 48 3 54 31 l7 30 1
-32 c1 -29 4 -33 29 -33 18 0 41 14 70 41 37 35 42 45 42 84 0 25 1 45 3 45 2
0 1 -137 -1 -305z"/>
<path d="M9150 4979 c-59 -17 -141 -51 -137 -58 6 -12 34 -76 41 -95 4 -13 11
-16 24 -11 48 21 142 35 198 29 40 -4 64 -2 68 5 4 6 16 11 27 11 11 0 18 4
15 9 -11 18 6 41 30 41 14 0 34 8 45 19 20 18 20 19 -23 36 -50 22 -232 30
-288 14z"/>
<path d="M9016 4605 c4 -11 2 -13 -9 -9 -10 3 -27 -11 -52 -43 -20 -26 -44
-52 -53 -57 -13 -7 -12 -4 3 14 l20 23 -23 -12 c-15 -8 -21 -18 -17 -30 4 -14
-5 -20 -42 -32 -28 -9 -52 -24 -58 -36 -19 -38 -38 -54 -57 -50 -35 10 -63
-68 -78 -216 -21 -211 57 -437 180 -521 25 -17 54 -33 65 -34 11 -2 25 -8 30
-12 6 -4 29 -13 53 -19 51 -14 47 -32 -6 -24 -56 9 -140 53 -185 97 -41 41
-117 151 -117 170 0 6 -7 24 -15 40 -53 102 -48 310 11 499 10 31 -21 19 -63
-25 -22 -24 -53 -52 -67 -63 -25 -18 -28 -29 -37 -120 -10 -110 3 -276 26
-331 7 -17 29 -50 49 -72 40 -44 43 -63 21 -136 -16 -54 -14 -70 7 -37 17 28
26 27 51 -6 58 -74 114 -124 179 -159 66 -34 80 -37 161 -39 86 -3 89 -2 98
22 13 34 11 43 -6 43 -18 0 -20 16 -3 26 6 4 14 2 16 -5 2 -6 16 14 32 46 32
68 70 106 123 123 24 7 66 41 122 95 99 100 114 121 90 139 -9 6 -18 20 -19
31 -2 11 -9 19 -15 17 -6 -1 -11 13 -11 34 0 24 -4 33 -12 28 -7 -5 -9 0 -6
14 8 29 -24 68 -67 83 -19 7 -35 17 -35 21 0 5 -9 4 -20 -2 -11 -6 -25 -8 -30
-5 -6 3 -10 2 -10 -3 0 -6 6 -12 13 -15 19 -7 47 -61 38 -75 -3 -6 -16 -9 -28
-6 -22 6 -38 44 -34 77 1 10 -3 25 -9 33 -10 11 -9 14 9 14 14 0 21 6 21 19 0
30 -11 52 -23 44 -5 -3 -7 -1 -3 5 12 21 -29 157 -45 147 -4 -3 -12 9 -17 27
-24 78 -22 93 7 66 11 -11 12 -10 5 3 -20 35 -78 109 -86 109 -4 0 -8 9 -8 19
0 11 -12 33 -26 50 -27 33 -47 41 -38 16z"/>
<path d="M52 4797 l-52 -53 2 -222 3 -222 275 275 275 275 -225 0 -226 0 -52
-53z"/>
<path d="M77 1392 l-78 -78 3 -127 3 -127 205 205 205 205 -130 0 -130 0 -78
-78z"/>
</g>
</svg>
